<svg xmlns="http://www.w3.org/2000/svg" xmlns:xlink="http://www.w3.org/1999/xlink" width="500" zoomAndPan="magnify" viewBox="0 0 375 374.999991" height="500" preserveAspectRatio="xMidYMid meet" version="1.0"><defs><clipPath id="0b714125f4"><path d="M 71 35 L 288 35 L 288 157 L 71 157 Z M 71 35 " clip-rule="nonzero"/></clipPath><clipPath id="23d2e6bdd1"><path d="M 273.683594 176.15625 L 58.246094 150.921875 L 71.757812 35.5625 L 287.195312 60.796875 Z M 273.683594 176.15625 " clip-rule="nonzero"/></clipPath><clipPath id="8db5c18dc5"><path d="M 273.683594 176.15625 L 58.246094 150.921875 L 71.757812 35.5625 L 287.195312 60.796875 Z M 273.683594 176.15625 " clip-rule="nonzero"/></clipPath><clipPath id="1a73692dab"><path d="M 115 30 L 210 30 L 210 365 L 115 365 Z M 115 30 " clip-rule="nonzero"/></clipPath><clipPath id="6f959e5127"><path d="M 104.589844 355.355469 L 172.207031 30.121094 L 219.804688 40.015625 L 152.1875 365.25 Z M 104.589844 355.355469 " clip-rule="nonzero"/></clipPath><clipPath id="428cadcab0"><path d="M 115.609375 303.28125 L 171.890625 32.5625 C 172.089844 31.597656 172.855469 30.855469 173.824219 30.679688 C 174.792969 30.507812 175.769531 30.941406 176.289062 31.777344 L 207.042969 81.023438 C 209.082031 84.289062 209.785156 88.21875 209 91.988281 L 152.71875 362.710938 C 152.515625 363.671875 151.75 364.417969 150.78125 364.589844 C 149.816406 364.761719 148.839844 364.328125 148.316406 363.496094 L 117.566406 314.246094 C 115.523438 310.980469 114.824219 307.054688 115.609375 303.28125 Z M 115.609375 303.28125 " clip-rule="nonzero"/></clipPath><clipPath id="5b57cea327"><path d="M 104.082031 358.726562 L 173.121094 26.640625 L 220.535156 36.5 L 151.496094 368.585938 Z M 104.082031 358.726562 " clip-rule="nonzero"/></clipPath><clipPath id="9b5d83504e"><path d="M 104.8125 355.210938 L 172.382812 30.203125 L 219.796875 40.0625 L 152.226562 365.066406 Z M 104.8125 355.210938 " clip-rule="nonzero"/></clipPath><linearGradient x1="-19.67918" gradientTransform="matrix(0.0385055, -0.185212, 0.185212, 0.0385055, 104.08156, 358.726708)" y1="128" x2="1812.430936" gradientUnits="userSpaceOnUse" y2="128" id="0c93e3f63a"><stop stop-opacity="1" stop-color="rgb(36.099243%, 48.599243%, 97.999573%)" offset="0"/><stop stop-opacity="1" stop-color="rgb(36.044312%, 48.547363%, 97.969055%)" offset="0.03125"/><stop stop-opacity="1" stop-color="rgb(35.824585%, 48.335266%, 97.843933%)" offset="0.0625"/><stop stop-opacity="1" stop-color="rgb(35.491943%, 48.014832%, 97.653198%)" offset="0.09375"/><stop stop-opacity="1" stop-color="rgb(35.159302%, 47.695923%, 97.463989%)" offset="0.125"/><stop stop-opacity="1" stop-color="rgb(34.82666%, 47.375488%, 97.27478%)" offset="0.15625"/><stop stop-opacity="1" stop-color="rgb(34.494019%, 47.05658%, 97.085571%)" offset="0.1875"/><stop stop-opacity="1" stop-color="rgb(34.161377%, 46.736145%, 96.896362%)" offset="0.21875"/><stop stop-opacity="1" stop-color="rgb(33.827209%, 46.417236%, 96.707153%)" offset="0.25"/><stop stop-opacity="1" stop-color="rgb(33.494568%, 46.096802%, 96.517944%)" offset="0.28125"/><stop stop-opacity="1" stop-color="rgb(33.161926%, 45.777893%, 96.328735%)" offset="0.3125"/><stop stop-opacity="1" stop-color="rgb(32.829285%, 45.457458%, 96.139526%)" offset="0.34375"/><stop stop-opacity="1" stop-color="rgb(32.496643%, 45.137024%, 95.950317%)" offset="0.375"/><stop stop-opacity="1" stop-color="rgb(32.164001%, 44.818115%, 95.761108%)" offset="0.40625"/><stop stop-opacity="1" stop-color="rgb(31.83136%, 44.497681%, 95.571899%)" offset="0.4375"/><stop stop-opacity="1" stop-color="rgb(31.498718%, 44.178772%, 95.38269%)" offset="0.46875"/><stop stop-opacity="1" stop-color="rgb(31.166077%, 43.858337%, 95.193481%)" offset="0.5"/><stop stop-opacity="1" stop-color="rgb(30.833435%, 43.539429%, 95.004272%)" offset="0.53125"/><stop stop-opacity="1" stop-color="rgb(30.499268%, 43.218994%, 94.815063%)" offset="0.5625"/><stop stop-opacity="1" stop-color="rgb(30.166626%, 42.900085%, 94.625854%)" offset="0.59375"/><stop stop-opacity="1" stop-color="rgb(29.833984%, 42.579651%, 94.436646%)" offset="0.625"/><stop stop-opacity="1" stop-color="rgb(29.501343%, 42.260742%, 94.247437%)" offset="0.65625"/><stop stop-opacity="1" stop-color="rgb(29.168701%, 41.940308%, 94.058228%)" offset="0.6875"/><stop stop-opacity="1" stop-color="rgb(28.83606%, 41.619873%, 93.869019%)" offset="0.71875"/><stop stop-opacity="1" stop-color="rgb(28.503418%, 41.300964%, 93.67981%)" offset="0.75"/><stop stop-opacity="1" stop-color="rgb(28.170776%, 40.98053%, 93.490601%)" offset="0.78125"/><stop stop-opacity="1" stop-color="rgb(27.838135%, 40.661621%, 93.301392%)" offset="0.8125"/><stop stop-opacity="1" stop-color="rgb(27.505493%, 40.341187%, 93.112183%)" offset="0.84375"/><stop stop-opacity="1" stop-color="rgb(27.171326%, 40.022278%, 92.922974%)" offset="0.875"/><stop stop-opacity="1" stop-color="rgb(26.838684%, 39.701843%, 92.733765%)" offset="0.90625"/><stop stop-opacity="1" stop-color="rgb(26.506042%, 39.382935%, 92.544556%)" offset="0.9375"/><stop stop-opacity="1" stop-color="rgb(26.173401%, 39.0625%, 92.355347%)" offset="0.96875"/><stop stop-opacity="1" stop-color="rgb(25.952148%, 38.850403%, 92.230225%)" offset="1"/></linearGradient><clipPath id="0267592bb7"><path d="M 21.140625 26.695312 L 363.511719 26.695312 L 363.511719 77.625 L 21.140625 77.625 Z M 21.140625 26.695312 " clip-rule="nonzero"/></clipPath><clipPath id="9f308f43f6"><path d="M 83.609375 26.695312 L 361.316406 26.695312 C 362.238281 26.695312 363.0625 27.269531 363.378906 28.136719 C 363.695312 29 363.4375 29.972656 362.734375 30.566406 L 311.628906 73.753906 C 308.667969 76.253906 304.917969 77.625 301.046875 77.625 L 23.335938 77.625 C 22.414062 77.625 21.59375 77.050781 21.277344 76.183594 C 20.957031 75.320312 21.214844 74.347656 21.921875 73.753906 L 73.027344 30.566406 C 75.988281 28.066406 79.734375 26.695312 83.609375 26.695312 Z M 83.609375 26.695312 " clip-rule="nonzero"/></clipPath><linearGradient x1="19.121996" gradientTransform="matrix(0.198953, 0, 0, 0.198953, 17.336968, 26.694399)" y1="128" x2="1739.991962" gradientUnits="userSpaceOnUse" y2="128" id="44e1275af7"><stop stop-opacity="1" stop-color="rgb(45.498657%, 56.098938%, 98.799133%)" offset="0"/><stop stop-opacity="1" stop-color="rgb(45.346069%, 55.963135%, 98.747253%)" offset="0.015625"/><stop stop-opacity="1" stop-color="rgb(45.039368%, 55.693054%, 98.643494%)" offset="0.03125"/><stop stop-opacity="1" stop-color="rgb(44.732666%, 55.422974%, 98.54126%)" offset="0.046875"/><stop stop-opacity="1" stop-color="rgb(44.42749%, 55.152893%, 98.4375%)" offset="0.0625"/><stop stop-opacity="1" stop-color="rgb(44.120789%, 54.882812%, 98.335266%)" offset="0.078125"/><stop stop-opacity="1" stop-color="rgb(43.814087%, 54.611206%, 98.231506%)" offset="0.09375"/><stop stop-opacity="1" stop-color="rgb(43.507385%, 54.341125%, 98.129272%)" offset="0.109375"/><stop stop-opacity="1" stop-color="rgb(43.202209%, 54.071045%, 98.025513%)" offset="0.125"/><stop stop-opacity="1" stop-color="rgb(42.895508%, 53.800964%, 97.921753%)" offset="0.140625"/><stop stop-opacity="1" stop-color="rgb(42.588806%, 53.530884%, 97.819519%)" offset="0.15625"/><stop stop-opacity="1" stop-color="rgb(42.28363%, 53.260803%, 97.715759%)" offset="0.171875"/><stop stop-opacity="1" stop-color="rgb(41.976929%, 52.990723%, 97.613525%)" offset="0.1875"/><stop stop-opacity="1" stop-color="rgb(41.670227%, 52.719116%, 97.509766%)" offset="0.203125"/><stop stop-opacity="1" stop-color="rgb(41.365051%, 52.449036%, 97.406006%)" offset="0.21875"/><stop stop-opacity="1" stop-color="rgb(41.05835%, 52.178955%, 97.303772%)" offset="0.234375"/><stop stop-opacity="1" stop-color="rgb(40.751648%, 51.908875%, 97.200012%)" offset="0.25"/><stop stop-opacity="1" stop-color="rgb(40.444946%, 51.638794%, 97.097778%)" offset="0.265625"/><stop stop-opacity="1" stop-color="rgb(40.139771%, 51.368713%, 96.994019%)" offset="0.28125"/><stop stop-opacity="1" stop-color="rgb(39.833069%, 51.097107%, 96.891785%)" offset="0.296875"/><stop stop-opacity="1" stop-color="rgb(39.526367%, 50.827026%, 96.788025%)" offset="0.3125"/><stop stop-opacity="1" stop-color="rgb(39.221191%, 50.556946%, 96.684265%)" offset="0.328125"/><stop stop-opacity="1" stop-color="rgb(38.91449%, 50.286865%, 96.582031%)" offset="0.34375"/><stop stop-opacity="1" stop-color="rgb(38.607788%, 50.016785%, 96.478271%)" offset="0.359375"/><stop stop-opacity="1" stop-color="rgb(38.301086%, 49.746704%, 96.376038%)" offset="0.375"/><stop stop-opacity="1" stop-color="rgb(37.995911%, 49.476624%, 96.272278%)" offset="0.390625"/><stop stop-opacity="1" stop-color="rgb(37.689209%, 49.205017%, 96.168518%)" offset="0.40625"/><stop stop-opacity="1" stop-color="rgb(37.382507%, 48.934937%, 96.066284%)" offset="0.421875"/><stop stop-opacity="1" stop-color="rgb(37.077332%, 48.664856%, 95.962524%)" offset="0.4375"/><stop stop-opacity="1" stop-color="rgb(36.77063%, 48.394775%, 95.860291%)" offset="0.453125"/><stop stop-opacity="1" stop-color="rgb(36.463928%, 48.124695%, 95.756531%)" offset="0.46875"/><stop stop-opacity="1" stop-color="rgb(36.158752%, 47.854614%, 95.654297%)" offset="0.484375"/><stop stop-opacity="1" stop-color="rgb(35.852051%, 47.583008%, 95.550537%)" offset="0.5"/><stop stop-opacity="1" stop-color="rgb(35.545349%, 47.312927%, 95.446777%)" offset="0.515625"/><stop stop-opacity="1" stop-color="rgb(35.238647%, 47.042847%, 95.344543%)" offset="0.53125"/><stop stop-opacity="1" stop-color="rgb(34.933472%, 46.772766%, 95.240784%)" offset="0.546875"/><stop stop-opacity="1" stop-color="rgb(34.62677%, 46.502686%, 95.13855%)" offset="0.5625"/><stop stop-opacity="1" stop-color="rgb(34.320068%, 46.232605%, 95.03479%)" offset="0.578125"/><stop stop-opacity="1" stop-color="rgb(34.014893%, 45.962524%, 94.93103%)" offset="0.59375"/><stop stop-opacity="1" stop-color="rgb(33.708191%, 45.690918%, 94.828796%)" offset="0.609375"/><stop stop-opacity="1" stop-color="rgb(33.401489%, 45.420837%, 94.725037%)" offset="0.625"/><stop stop-opacity="1" stop-color="rgb(33.096313%, 45.150757%, 94.622803%)" offset="0.640625"/><stop stop-opacity="1" stop-color="rgb(32.789612%, 44.880676%, 94.519043%)" offset="0.65625"/><stop stop-opacity="1" stop-color="rgb(32.48291%, 44.610596%, 94.416809%)" offset="0.671875"/><stop stop-opacity="1" stop-color="rgb(32.176208%, 44.340515%, 94.313049%)" offset="0.6875"/><stop stop-opacity="1" stop-color="rgb(31.871033%, 44.070435%, 94.20929%)" offset="0.703125"/><stop stop-opacity="1" stop-color="rgb(31.564331%, 43.798828%, 94.107056%)" offset="0.71875"/><stop stop-opacity="1" stop-color="rgb(31.257629%, 43.528748%, 94.003296%)" offset="0.734375"/><stop stop-opacity="1" stop-color="rgb(30.952454%, 43.258667%, 93.901062%)" offset="0.75"/><stop stop-opacity="1" stop-color="rgb(30.645752%, 42.988586%, 93.797302%)" offset="0.765625"/><stop stop-opacity="1" stop-color="rgb(30.33905%, 42.718506%, 93.693542%)" offset="0.78125"/><stop stop-opacity="1" stop-color="rgb(30.032349%, 42.448425%, 93.591309%)" offset="0.796875"/><stop stop-opacity="1" stop-color="rgb(29.727173%, 42.176819%, 93.487549%)" offset="0.8125"/><stop stop-opacity="1" stop-color="rgb(29.420471%, 41.906738%, 93.385315%)" offset="0.828125"/><stop stop-opacity="1" stop-color="rgb(29.11377%, 41.636658%, 93.281555%)" offset="0.84375"/><stop stop-opacity="1" stop-color="rgb(28.808594%, 41.366577%, 93.179321%)" offset="0.859375"/><stop stop-opacity="1" stop-color="rgb(28.501892%, 41.096497%, 93.075562%)" offset="0.875"/><stop stop-opacity="1" stop-color="rgb(28.19519%, 40.826416%, 92.971802%)" offset="0.890625"/><stop stop-opacity="1" stop-color="rgb(27.890015%, 40.556335%, 92.869568%)" offset="0.90625"/><stop stop-opacity="1" stop-color="rgb(27.583313%, 40.284729%, 92.765808%)" offset="0.921875"/><stop stop-opacity="1" stop-color="rgb(27.276611%, 40.014648%, 92.663574%)" offset="0.9375"/><stop stop-opacity="1" stop-color="rgb(26.96991%, 39.744568%, 92.559814%)" offset="0.953125"/><stop stop-opacity="1" stop-color="rgb(26.664734%, 39.474487%, 92.456055%)" offset="0.96875"/><stop stop-opacity="1" stop-color="rgb(26.358032%, 39.204407%, 92.353821%)" offset="0.984375"/><stop stop-opacity="1" stop-color="rgb(26.051331%, 38.934326%, 92.250061%)" offset="1"/></linearGradient></defs><g clip-path="url(#0b714125f4)"><g clip-path="url(#23d2e6bdd1)"><g clip-path="url(#8db5c18dc5)"><path fill="#545454" d="M 72.332031 35.589844 L 74.304688 35.820312 C 67.496094 93.96875 109.261719 146.820312 167.414062 153.632812 C 225.566406 160.441406 278.414062 118.675781 285.226562 60.527344 L 287.199219 60.757812 C 286.835938 63.828125 286.34375 66.875 285.722656 69.902344 C 285.101562 72.929688 284.347656 75.925781 283.46875 78.886719 C 282.589844 81.851562 281.585938 84.769531 280.457031 87.644531 C 279.324219 90.523438 278.074219 93.347656 276.703125 96.117188 C 275.332031 98.886719 273.84375 101.589844 272.242188 104.234375 C 270.636719 106.875 268.925781 109.445312 267.101562 111.9375 C 265.277344 114.433594 263.351562 116.847656 261.320312 119.175781 C 259.289062 121.507812 257.164062 123.746094 254.941406 125.894531 C 252.71875 128.042969 250.410156 130.089844 248.011719 132.042969 C 245.613281 133.992188 243.136719 135.835938 240.582031 137.574219 C 238.023438 139.3125 235.398438 140.9375 232.703125 142.449219 C 230.007812 143.960938 227.253906 145.355469 224.441406 146.632812 C 221.625 147.910156 218.761719 149.0625 215.847656 150.09375 C 212.933594 151.125 209.980469 152.03125 206.992188 152.808594 C 204 153.585938 200.980469 154.238281 197.933594 154.757812 C 194.886719 155.277344 191.824219 155.664062 188.746094 155.921875 C 185.664062 156.179688 182.578125 156.304688 179.488281 156.296875 C 176.398438 156.289062 173.3125 156.148438 170.234375 155.878906 C 167.15625 155.605469 164.09375 155.203125 161.050781 154.667969 C 158.007812 154.132812 154.992188 153.472656 152.003906 152.679688 C 149.015625 151.886719 146.070312 150.96875 143.160156 149.921875 C 140.25 148.878906 137.394531 147.710938 134.585938 146.421875 C 131.777344 145.128906 129.027344 143.722656 126.339844 142.195312 C 123.652344 140.671875 121.035156 139.035156 118.488281 137.285156 C 115.941406 135.535156 113.472656 133.679688 111.082031 131.71875 C 108.695312 129.757812 106.394531 127.695312 104.183594 125.539062 C 101.96875 123.378906 99.855469 121.128906 97.835938 118.789062 C 95.816406 116.449219 93.898438 114.027344 92.089844 111.523438 C 90.277344 109.023438 88.574219 106.445312 86.984375 103.796875 C 85.394531 101.144531 83.917969 98.433594 82.558594 95.65625 C 81.203125 92.878906 79.964844 90.050781 78.847656 87.167969 C 77.734375 84.289062 76.742188 81.363281 75.875 78.394531 C 73.851562 71.453125 72.542969 64.378906 71.945312 57.171875 C 71.347656 49.964844 71.476562 42.769531 72.332031 35.589844 Z M 72.332031 35.589844 " fill-opacity="1" fill-rule="nonzero"/></g></g></g><g clip-path="url(#1a73692dab)"><g clip-path="url(#6f959e5127)"><g clip-path="url(#428cadcab0)"><g clip-path="url(#5b57cea327)"><g clip-path="url(#9b5d83504e)"><path fill="url(#0c93e3f63a)" d="M 48.210938 350.914062 L 205.851562 383.6875 L 276.394531 44.355469 L 118.757812 11.585938 Z M 48.210938 350.914062 " fill-rule="nonzero"/></g></g></g></g></g><g clip-path="url(#0267592bb7)"><g clip-path="url(#9f308f43f6)"><path fill="url(#44e1275af7)" d="M 21.140625 26.695312 L 21.140625 77.625 L 363.511719 77.625 L 363.511719 26.695312 Z M 21.140625 26.695312 " fill-rule="nonzero"/></g></g></svg>