<svg xmlns="http://www.w3.org/2000/svg" xmlns:xlink="http://www.w3.org/1999/xlink" width="500" zoomAndPan="magnify" viewBox="0 0 375 374.999991" height="500" preserveAspectRatio="xMidYMid meet" version="1.0"><defs><clipPath id="8c32a61a34"><path d="M 54 12 L 267 12 L 267 131 L 54 131 Z M 54 12 " clip-rule="nonzero"/></clipPath><clipPath id="03ee71237f"><path d="M 256.683594 150.15625 L 41.246094 124.921875 L 54.921875 8.171875 L 270.355469 33.40625 Z M 256.683594 150.15625 " clip-rule="nonzero"/></clipPath><clipPath id="4ba05c0132"><path d="M 260.171875 120.363281 L 266.714844 64.511719 C 267.640625 56.609375 265.386719 48.660156 260.453125 42.417969 C 255.519531 36.175781 248.308594 32.148438 240.40625 31.222656 L 85.097656 13.03125 C 77.195312 12.105469 69.25 14.359375 63.007812 19.292969 C 56.765625 24.226562 52.738281 31.4375 51.8125 39.339844 L 45.269531 95.1875 C 44.34375 103.09375 46.59375 111.039062 51.527344 117.28125 C 56.460938 123.523438 63.671875 127.550781 71.574219 128.476562 L 226.886719 146.667969 C 234.789062 147.59375 242.734375 145.339844 248.976562 140.410156 C 255.21875 135.476562 259.246094 128.265625 260.171875 120.363281 Z M 260.171875 120.363281 " clip-rule="nonzero"/></clipPath><clipPath id="43b421a3e0"><path d="M 256.683594 150.15625 L 41.246094 124.921875 L 54.757812 9.5625 L 270.195312 34.796875 Z M 256.683594 150.15625 " clip-rule="nonzero"/></clipPath><clipPath id="cffc0fb1a1"><path d="M 256.683594 150.15625 L 41.246094 124.921875 L 54.757812 9.5625 L 270.195312 34.796875 Z M 256.683594 150.15625 " clip-rule="nonzero"/></clipPath><clipPath id="133fdc9408"><path d="M 101 20 L 189 20 L 189 323 L 101 323 Z M 101 20 " clip-rule="nonzero"/></clipPath><clipPath id="3c37a8b2b6"><path d="M 90.699219 315.316406 L 152.464844 18.234375 L 199.878906 28.09375 L 138.117188 325.175781 Z M 90.699219 315.316406 " clip-rule="nonzero"/></clipPath><clipPath id="088c0b6bd5"><path d="M 103.492188 253.785156 L 150.007812 30.058594 C 151.007812 25.246094 154.835938 21.523438 159.675781 20.660156 C 164.519531 19.792969 169.398438 21.960938 172.003906 26.132812 L 177.332031 34.667969 C 187.53125 51 191.035156 70.632812 187.113281 89.484375 L 140.601562 313.210938 C 139.601562 318.027344 135.773438 321.75 130.929688 322.613281 C 126.089844 323.476562 121.210938 321.308594 118.605469 317.136719 L 113.277344 308.605469 C 103.078125 292.273438 99.574219 272.636719 103.492188 253.785156 Z M 103.492188 253.785156 " clip-rule="nonzero"/></clipPath><clipPath id="3f41ace948"><path d="M 0 0 L 88 0 L 88 303 L 0 303 Z M 0 0 " clip-rule="nonzero"/></clipPath><clipPath id="d03dd1af5f"><path d="M -10.300781 295.316406 L 51.464844 -1.765625 L 98.878906 8.09375 L 37.117188 305.175781 Z M -10.300781 295.316406 " clip-rule="nonzero"/></clipPath><clipPath id="21ce9bd9e9"><path d="M 2.492188 233.785156 L 49.007812 10.058594 C 50.007812 5.246094 53.835938 1.523438 58.675781 0.660156 C 63.519531 -0.207031 68.398438 1.960938 71.003906 6.132812 L 76.332031 14.667969 C 86.53125 31 90.035156 50.632812 86.113281 69.484375 L 39.601562 293.210938 C 38.601562 298.027344 34.773438 301.75 29.929688 302.613281 C 25.089844 303.476562 20.210938 301.308594 17.605469 297.136719 L 12.277344 288.605469 C 2.078125 272.273438 -1.425781 252.636719 2.492188 233.785156 Z M 2.492188 233.785156 " clip-rule="nonzero"/></clipPath><clipPath id="793e039d50"><rect x="0" width="88" y="0" height="303"/></clipPath><clipPath id="d9a411c1fb"><path d="M 19.238281 0.695312 L 331.394531 0.695312 L 331.394531 51.625 L 19.238281 51.625 Z M 19.238281 0.695312 " clip-rule="nonzero"/></clipPath><clipPath id="40ab62aa55"><path d="M 90.609375 0.695312 L 320.316406 0.695312 C 324.925781 0.695312 329.042969 3.574219 330.628906 7.898438 C 332.210938 12.226562 330.921875 17.082031 327.402344 20.058594 L 312.960938 32.261719 C 298.164062 44.765625 279.417969 51.625 260.046875 51.625 L 30.335938 51.625 C 25.730469 51.625 21.613281 48.75 20.027344 44.421875 C 18.445312 40.09375 19.730469 35.238281 23.25 32.261719 L 37.695312 20.058594 C 52.492188 7.554688 71.238281 0.695312 90.609375 0.695312 Z M 90.609375 0.695312 " clip-rule="nonzero"/></clipPath><clipPath id="0e1dffca6b"><path d="M 0.238281 0.695312 L 312.394531 0.695312 L 312.394531 51.625 L 0.238281 51.625 Z M 0.238281 0.695312 " clip-rule="nonzero"/></clipPath><clipPath id="affb490de2"><path d="M 71.609375 0.695312 L 301.316406 0.695312 C 305.925781 0.695312 310.042969 3.574219 311.628906 7.898438 C 313.210938 12.226562 311.921875 17.082031 308.402344 20.058594 L 293.960938 32.261719 C 279.164062 44.765625 260.417969 51.625 241.046875 51.625 L 11.335938 51.625 C 6.730469 51.625 2.613281 48.75 1.027344 44.421875 C -0.554688 40.09375 0.730469 35.238281 4.25 32.261719 L 18.695312 20.058594 C 33.492188 7.554688 52.238281 0.695312 71.609375 0.695312 Z M 71.609375 0.695312 " clip-rule="nonzero"/></clipPath><clipPath id="905988d391"><rect x="0" width="313" y="0" height="52"/></clipPath><clipPath id="758d1813b0"><rect x="0" width="351" y="0" height="343"/></clipPath></defs><g transform="matrix(1, 0, 0, 1, 17, 26)"><g clip-path="url(#758d1813b0)"><g clip-path="url(#8c32a61a34)"><g clip-path="url(#03ee71237f)"><g clip-path="url(#4ba05c0132)"><g clip-path="url(#43b421a3e0)"><g clip-path="url(#cffc0fb1a1)"><path fill="#eaf1f1" d="M 55.332031 9.589844 L 57.304688 9.820312 C 50.496094 67.96875 92.261719 120.820312 150.414062 127.632812 C 208.566406 134.441406 261.414062 92.675781 268.226562 34.527344 L 270.199219 34.757812 C 269.835938 37.828125 269.34375 40.875 268.722656 43.902344 C 268.101562 46.929688 267.347656 49.925781 266.46875 52.886719 C 265.589844 55.851562 264.585938 58.769531 263.457031 61.644531 C 262.324219 64.523438 261.074219 67.347656 259.703125 70.117188 C 258.332031 72.886719 256.84375 75.589844 255.242188 78.234375 C 253.636719 80.875 251.925781 83.445312 250.101562 85.9375 C 248.277344 88.433594 246.351562 90.847656 244.320312 93.175781 C 242.289062 95.507812 240.164062 97.746094 237.941406 99.894531 C 235.71875 102.042969 233.410156 104.089844 231.011719 106.042969 C 228.613281 107.992188 226.136719 109.835938 223.582031 111.574219 C 221.023438 113.3125 218.398438 114.9375 215.703125 116.449219 C 213.007812 117.960938 210.253906 119.355469 207.441406 120.632812 C 204.625 121.910156 201.761719 123.0625 198.847656 124.09375 C 195.933594 125.125 192.980469 126.03125 189.992188 126.808594 C 187 127.585938 183.980469 128.238281 180.933594 128.757812 C 177.886719 129.277344 174.824219 129.664062 171.746094 129.921875 C 168.664062 130.179688 165.578125 130.304688 162.488281 130.296875 C 159.398438 130.289062 156.3125 130.148438 153.234375 129.878906 C 150.15625 129.605469 147.09375 129.203125 144.050781 128.667969 C 141.007812 128.136719 137.992188 127.472656 135.003906 126.679688 C 132.015625 125.886719 129.070312 124.96875 126.160156 123.921875 C 123.25 122.878906 120.394531 121.710938 117.585938 120.421875 C 114.777344 119.128906 112.027344 117.722656 109.339844 116.195312 C 106.652344 114.671875 104.035156 113.035156 101.488281 111.285156 C 98.941406 109.535156 96.472656 107.679688 94.082031 105.71875 C 91.695312 103.757812 89.394531 101.695312 87.183594 99.539062 C 84.96875 97.378906 82.855469 95.128906 80.835938 92.789062 C 78.816406 90.449219 76.902344 88.027344 75.089844 85.523438 C 73.277344 83.023438 71.574219 80.445312 69.984375 77.796875 C 68.394531 75.144531 66.917969 72.433594 65.5625 69.65625 C 64.203125 66.878906 62.964844 64.050781 61.847656 61.167969 C 60.734375 58.289062 59.742188 55.363281 58.875 52.394531 C 56.851562 45.453125 55.542969 38.378906 54.945312 31.171875 C 54.347656 23.964844 54.476562 16.769531 55.332031 9.589844 Z M 55.332031 9.589844 " fill-opacity="1" fill-rule="nonzero"/></g></g></g></g></g><g clip-path="url(#133fdc9408)"><g clip-path="url(#3c37a8b2b6)"><g clip-path="url(#088c0b6bd5)"><g transform="matrix(1, 0, 0, 1, 101, 20)"><g clip-path="url(#793e039d50)"><g clip-path="url(#3f41ace948)"><g clip-path="url(#d03dd1af5f)"><g clip-path="url(#21ce9bd9e9)"><path fill="#1f48ff" d="M -13.917969 312.726562 L 55.121094 -19.359375 L 102.535156 -9.5 L 33.496094 322.585938 Z M -13.917969 312.726562 " fill-opacity="1" fill-rule="nonzero"/></g></g></g></g></g></g></g></g><g clip-path="url(#d9a411c1fb)"><g clip-path="url(#40ab62aa55)"><g transform="matrix(1, 0, 0, 1, 19, 0)"><g clip-path="url(#905988d391)"><g clip-path="url(#0e1dffca6b)"><g clip-path="url(#affb490de2)"><path fill="#1f48ff" d="M -18.664062 0.695312 L 331.296875 0.695312 L 331.296875 51.625 L -18.664062 51.625 Z M -18.664062 0.695312 " fill-opacity="1" fill-rule="nonzero"/></g></g></g></g></g></g></g></g></svg>